{"title":"Lost Area - 2010 - Memoria (videoclip official)","uid":8635290,"size":121642782,"categoryP":"video","categoryS":"music_videos","magnet":"?xt=urn:btih:b9d795969b96bd197b80ba78a9238db86c894a9a&amp;dn=Lost+Area+-+2010+-+Memoria+%28videoclip+official%29&amp;tr=udp%3A%2F%2Ftracker.openbittorrent.com%3A80&amp;tr=udp%3A%2F%2Fopen.demonii.com%3A1337&amp;tr=udp%3A%2F%2Ftracker.coppersurfer.tk%3A6969&amp;tr=udp%3A%2F%2Fexodus.desync.com%3A6969","seeders":1,"leechers":0,"uploader":"58540748","files":1,"time":1372727999,"description":"Warning! Experimental release!\n\nGeneral\nUnique ID                                : 183813358733346612347079458505604160650 (0x8A492A48FE5F11EB84F70DFA7DF75C8A)\nComplete name                            : E:hdmvclipsLost Area - 2010 - Memoria (videoclip official).mkv\nFormat                                   : Matroska\nFormat version                           : Version 4 / Version 2\nFile size                                : 116 MiB\nDuration                                 : 4mn 19s\nOverall bit rate mode                    : Variable\nOverall bit rate                         : 3 745 Kbps\nEncoded date                             : UTC 2013-07-01 23:13:30\nWriting application                      : mkvmerge v6.3.0 ('You can't stop me!') built on Jun 28 2013 20:09:41\nWriting library                          : libebml v1.3.0 + libmatroska v1.4.0\n\nVideo\nID                                       : 1\nFormat                                   : MPEG Video\nFormat version                           : Version 2\nFormat profile                           : Main@Main\nFormat settings, BVOP                    : No\nFormat settings, Matrix                  : Custom\nCodec ID                                 : V_MPEG2\nCodec ID/Info                            : MPEG 1 or 2 Video\nDuration                                 : 4mn 19s\nBit rate mode                            : Variable\nBit rate                                 : 3 446 Kbps\nMaximum bit rate                         : 7 652 Kbps\nWidth                                    : 720 pixels\nHeight                                   : 576 pixels\nDisplay aspect ratio                     : 16:9\nFrame rate mode                          : Constant\nFrame rate                               : 25.000 fps\nStandard                                 : PAL\nColor space                              : YUV\nChroma subsampling                       : 4:2:0\nBit depth                                : 8 bits\nCompression mode                         : Lossy\nBits/(Pixel*Frame)                       : 0.332\nTime code of first frame                 : 00:00:00:00\nTime code source                         : Group of pictures header\nStream size                              : 107 MiB (92%)\nDefault                                  : Yes\nForced                                   : No\n\nAudio\nID                                       : 2\nFormat                                   : AC-3\nFormat/Info                              : Audio Coding 3\nMode extension                           : CM (complete main)\nFormat settings, Endianness              : Big\nCodec ID                                 : A_AC3\nDuration                                 : 4mn 19s\nBit rate mode                            : Constant\nBit rate                                 : 224 Kbps\nChannel(s)                               : 2 channels\nChannel positions                        : Front: L R\nSampling rate                            : 48.0 KHz\nBit depth                                : 16 bits\nCompression mode                         : Lossy\nStream size                              : 6.94 MiB (6%)\nLanguage                                 : English\nDefault                                  : Yes\nForced                                   : No\n","torrent":{"xt":"urn:btih:b9d795969b96bd197b80ba78a9238db86c894a9a","amp;dn":"Lost+Area+-+2010+-+Memoria+%28videoclip+official%29","amp;tr":["udp%3A%2F%2Ftracker.openbittorrent.com%3A80","udp%3A%2F%2Fopen.demonii.com%3A1337","udp%3A%2F%2Ftracker.coppersurfer.tk%3A6969","udp%3A%2F%2Fexodus.desync.com%3A6969"],"infoHash":"b9d795969b96bd197b80ba78a9238db86c894a9a","infoHashBuffer":{"type":"Buffer","data":[185,215,149,150,155,150,189,25,123,128,186,120,169,35,141,184,108,137,74,154]},"announce":[],"urlList":[]}}